<svg xmlns="http://www.w3.org/2000/svg" viewBox="0 0 64 64" fill="none">
  <circle cx="32" cy="32" r="15.5" fill="#050608"/>
  <circle cx="32" cy="32" r="19.5" stroke="rgba(255,255,255,.14)" stroke-width="1.25"/>
  <path
    d="M32 11.5c-10.8 0-19.5 8.7-19.5 19.5S21.2 50.5 32 50.5 51.5 41.8 51.5 31 42.8 11.5 32 11.5Zm0 6.2c7.37 0 13.3 5.93 13.3 13.3S39.37 44.3 32 44.3 18.7 38.37 18.7 31 24.63 17.7 32 17.7Z"
    fill="#F6F8FB"
  />
  <path
    d="M10 53.4 49.6 10.6c1.5-1.62 3.95-1.79 5.66-.39 1.7 1.39 2.07 3.88.84 5.71L18.1 54.26c-1.48 1.81-4.11 2.13-5.98.73-1.88-1.41-2.26-4.08-.86-5.99Z"
    fill="url(#orbitalSlash)"
  />
  <path
    d="M15 51.8 52.8 13"
    stroke="rgba(255,255,255,.38)"
    stroke-width="1.2"
    stroke-linecap="round"
  />
  <defs>
    <linearGradient id="orbitalSlash" x1="13.2" y1="51.8" x2="53.9" y2="12.1" gradientUnits="userSpaceOnUse">
      <stop stop-color="#FFFFFF" stop-opacity=".02"/>
      <stop offset=".18" stop-color="#D6D9DE"/>
      <stop offset=".5" stop-color="#636972"/>
      <stop offset=".82" stop-color="#EEF2F7"/>
      <stop offset="1" stop-color="#FFFFFF" stop-opacity=".04"/>
    </linearGradient>
  </defs>
</svg>
